# xmcd
#
# Track frame offsets: 
#        150
#        11661
#        26984
#        40288
#        59664
#        71463
#        88275
#        101251
#        113210
#        126576
#        139576
#        157098
#        170721
#        185145
#
# Disc length: 2619 seconds
#
# Revision: 0
# Processed by: cddbd v1.5.1PL0 Copyright (c) Steve Scherf et al.
# Submitted via: ExactAudioCopy v0.95a5
#
DISCID=d40a390e
DTITLE=Christensen Sisters - The Old Homestead
DYEAR=1997
DGENRE=Bluegrass
TTITLE0=Born to Be With You
TTITLE1=Daddy Said
TTITLE2=Mornin' Train
TTITLE3=Gentle River
TTITLE4=If You Ever Change Your Mind
TTITLE5=More to Be Pitied
TTITLE6=Paul and Peter Walked
TTITLE7=February in My Heart
TTITLE8=Crankbait
TTITLE9=The Old Homestead
TTITLE10=Melancholy Child
TTITLE11=Oklahoma Blues
TTITLE12=Six Feet of Snow
TTITLE13=Angels Rejoice
EXTD=
EXTT0=
EXTT1=
EXTT2=
EXTT3=
EXTT4=
EXTT5=
EXTT6=
EXTT7=
EXTT8=
EXTT9=
EXTT10=
EXTT11=
EXTT12=
EXTT13=
PLAYORDER=
